<?xml version="1.0" encoding="utf-8"?>
<!-- Generator: Adobe Illustrator 16.0.0, SVG Export Plug-In . SVG Version: 6.00 Build 0)  -->
<!DOCTYPE svg PUBLIC "-//W3C//DTD SVG 1.1//EN" "http://www.w3.org/Graphics/SVG/1.1/DTD/svg11.dtd">
<svg version="1.1" xmlns="http://www.w3.org/2000/svg" xmlns:xlink="http://www.w3.org/1999/xlink" x="0px" y="0px" width="1387px"
	 height="422px" viewBox="0 0 1387 422" enable-background="new 0 0 1387 422" xml:space="preserve">
	 <style>
	 		polygon {
				fill: #0076D1;
    		opacity: .35;
			}
			polygon[opacity] {
				opacity: .7;
			}
	 </style>
<g id="Layer_1">
	<g opacity="0.11">
		<polygon fill="#FFFFFF" points="393.041,102.47 372.352,66.64 351.663,102.47 		"/>
		<polygon opacity="0.5" fill="#FFFFFF" points="320.582,53.54 341.27,89.37 361.957,53.54 		"/>
		<polygon opacity="0.5" fill="#FFFFFF" points="351.663,107.403 372.352,143.235 393.041,107.403 		"/>
		<polygon fill="#FFFFFF" points="330.977,102.47 310.289,66.64 289.602,102.47 		"/>
		<polygon fill="#FFFFFF" points="361.957,48.608 341.27,12.776 320.582,48.608 		"/>
		<polygon opacity="0.5" fill="#FFFFFF" points="258.571,53.54 279.258,89.37 299.946,53.54 		"/>
		<polygon fill="#FFFFFF" points="299.946,48.608 279.258,12.775 258.571,48.606 		"/>
		<polygon opacity="0.5" fill="#FFFFFF" points="196.508,53.54 217.196,89.37 237.882,53.54 		"/>
		<polygon fill="#FFFFFF" points="237.882,48.606 217.196,12.775 196.508,48.606 		"/>
		<polygon opacity="0.5" fill="#FFFFFF" points="289.602,107.403 310.289,143.235 330.977,107.403 		"/>
		<polygon fill="#FFFFFF" points="268.915,102.47 248.226,66.639 227.538,102.47 		"/>
		<polygon opacity="0.5" fill="#FFFFFF" points="227.538,107.403 248.226,143.235 268.915,107.403 		"/>
		<polygon fill="#FFFFFF" points="206.853,102.47 186.165,66.639 165.477,102.47 		"/>
		<polygon opacity="0.5" fill="#FFFFFF" points="134.393,53.54 155.082,89.37 175.769,53.54 		"/>
		<polygon opacity="0.5" fill="#FFFFFF" points="165.477,107.403 186.165,143.235 206.853,107.403 		"/>
		<polygon fill="#FFFFFF" points="144.787,102.47 124.101,66.639 103.412,102.47 		"/>
		<polygon fill="#FFFFFF" points="175.769,48.606 155.082,12.775 134.393,48.606 		"/>
		<polygon opacity="0.5" fill="#FFFFFF" points="72.381,53.54 93.067,89.37 113.758,53.54 		"/>
		<polygon fill="#FFFFFF" points="113.758,48.606 93.067,12.775 72.381,48.606 		"/>
		<polygon opacity="0.5" fill="#FFFFFF" points="10.319,53.54 31.007,89.37 51.692,53.54 		"/>
		<polygon fill="#FFFFFF" points="51.692,48.606 31.007,12.775 10.319,48.606 		"/>
		<polygon opacity="0.5" fill="#FFFFFF" points="103.412,107.403 124.101,143.235 144.787,107.403 		"/>
		<polygon fill="#FFFFFF" points="82.726,102.47 62.037,66.639 41.352,102.47 		"/>
		<polygon opacity="0.5" fill="#FFFFFF" points="41.352,107.403 62.037,143.235 82.726,107.403 		"/>
		<polygon fill="#FFFFFF" points="393.041,210.077 372.352,174.247 351.663,210.077 		"/>
		<polygon opacity="0.5" fill="#FFFFFF" points="320.582,161.145 341.27,196.977 361.957,161.145 		"/>
		<polygon opacity="0.5" fill="#FFFFFF" points="351.663,215.009 372.352,250.841 393.041,215.009 		"/>
		<polygon fill="#FFFFFF" points="330.977,210.077 310.289,174.247 289.602,210.077 		"/>
		<polygon fill="#FFFFFF" points="361.957,156.213 341.27,120.383 320.582,156.213 		"/>
		<polygon opacity="0.5" fill="#FFFFFF" points="258.571,161.145 279.258,196.977 299.946,161.145 		"/>
		<polygon fill="#FFFFFF" points="299.946,156.213 279.258,120.381 258.571,156.211 		"/>
		<polygon opacity="0.5" fill="#FFFFFF" points="196.508,161.145 217.196,196.977 237.882,161.145 		"/>
		<polygon fill="#FFFFFF" points="237.882,156.211 217.196,120.381 196.508,156.211 		"/>
		<polygon opacity="0.5" fill="#FFFFFF" points="289.602,215.009 310.289,250.841 330.977,215.009 		"/>
		<polygon fill="#FFFFFF" points="268.915,210.077 248.226,174.247 227.538,210.077 		"/>
		<polygon opacity="0.5" fill="#FFFFFF" points="227.538,215.007 248.226,250.841 268.915,215.007 		"/>
		<polygon fill="#FFFFFF" points="206.853,210.077 186.165,174.247 165.477,210.077 		"/>
		<polygon opacity="0.5" fill="#FFFFFF" points="134.393,161.145 155.082,196.977 175.769,161.145 		"/>
		<polygon opacity="0.5" fill="#FFFFFF" points="165.477,215.007 186.165,250.841 206.853,215.007 		"/>
		<polygon fill="#FFFFFF" points="144.787,210.077 124.101,174.247 103.412,210.077 		"/>
		<polygon fill="#FFFFFF" points="175.769,156.211 155.082,120.381 134.393,156.211 		"/>
		<polygon opacity="0.5" fill="#FFFFFF" points="72.381,161.145 93.067,196.977 113.758,161.145 		"/>
		<polygon fill="#FFFFFF" points="113.758,156.211 93.067,120.381 72.381,156.211 		"/>
		<polygon opacity="0.5" fill="#FFFFFF" points="10.319,161.145 31.007,196.977 51.692,161.145 		"/>
		<polygon fill="#FFFFFF" points="51.692,156.211 31.007,120.381 10.319,156.211 		"/>
		<polygon opacity="0.5" fill="#FFFFFF" points="351.663,-0.203 372.352,35.629 393.041,-0.203 		"/>
		<polygon opacity="0.5" fill="#FFFFFF" points="289.602,-0.203 310.289,35.629 330.977,-0.203 		"/>
		<polygon opacity="0.5" fill="#FFFFFF" points="227.538,-0.203 248.226,35.629 268.915,-0.203 		"/>
		<polygon opacity="0.5" fill="#FFFFFF" points="165.477,-0.203 186.165,35.629 206.853,-0.203 		"/>
		<polygon opacity="0.5" fill="#FFFFFF" points="103.412,-0.203 124.101,35.629 144.787,-0.203 		"/>
		<polygon opacity="0.5" fill="#FFFFFF" points="41.352,-0.203 62.037,35.629 82.726,-0.203 		"/>
		<polygon opacity="0.5" fill="#FFFFFF" points="103.412,215.007 124.101,250.841 144.787,215.007 		"/>
		<polygon fill="#FFFFFF" points="82.726,210.077 62.037,174.247 41.352,210.077 		"/>
		<polygon opacity="0.5" fill="#FFFFFF" points="41.352,215.007 62.037,250.841 82.726,215.007 		"/>
		<polygon fill="#FFFFFF" points="393.041,317.29 372.352,281.457 351.663,317.29 		"/>
		<polygon opacity="0.5" fill="#FFFFFF" points="320.582,268.357 341.27,304.187 361.957,268.357 		"/>
		<polygon opacity="0.5" fill="#FFFFFF" points="351.663,322.221 372.352,358.052 393.041,322.221 		"/>
		<polygon fill="#FFFFFF" points="330.977,317.29 310.289,281.457 289.602,317.29 		"/>
		<polygon fill="#FFFFFF" points="361.957,263.424 341.27,227.592 320.582,263.424 		"/>
		<polygon opacity="0.5" fill="#FFFFFF" points="258.571,268.354 279.258,304.187 299.946,268.357 		"/>
		<polygon fill="#FFFFFF" points="299.946,263.424 279.258,227.592 258.571,263.424 		"/>
		<polygon opacity="0.5" fill="#FFFFFF" points="196.508,268.354 217.196,304.187 237.882,268.354 		"/>
		<polygon fill="#FFFFFF" points="237.882,263.424 217.196,227.592 196.508,263.424 		"/>
		<polygon opacity="0.5" fill="#FFFFFF" points="289.602,322.221 310.289,358.052 330.977,322.221 		"/>
		<polygon fill="#FFFFFF" points="268.915,317.288 248.226,281.456 227.538,317.288 		"/>
		<polygon opacity="0.5" fill="#FFFFFF" points="227.538,322.221 248.226,358.052 268.915,322.221 		"/>
		<polygon fill="#FFFFFF" points="206.853,317.288 186.165,281.456 165.477,317.288 		"/>
		<polygon opacity="0.5" fill="#FFFFFF" points="134.393,268.354 155.082,304.187 175.769,268.354 		"/>
		<polygon opacity="0.5" fill="#FFFFFF" points="165.477,322.221 186.165,358.052 206.853,322.221 		"/>
		<polygon fill="#FFFFFF" points="144.787,317.288 124.101,281.456 103.412,317.288 		"/>
		<polygon fill="#FFFFFF" points="175.769,263.424 155.082,227.592 134.393,263.424 		"/>
		<polygon opacity="0.5" fill="#FFFFFF" points="72.381,268.354 93.067,304.187 113.758,268.354 		"/>
		<polygon fill="#FFFFFF" points="113.758,263.424 93.067,227.592 72.381,263.424 		"/>
		<polygon opacity="0.5" fill="#FFFFFF" points="10.319,268.354 31.007,304.187 51.692,268.354 		"/>
		<polygon fill="#FFFFFF" points="51.692,263.424 31.007,227.592 10.319,263.424 		"/>
		<polygon opacity="0.5" fill="#FFFFFF" points="103.412,322.221 124.101,358.052 144.787,322.221 		"/>
		<polygon fill="#FFFFFF" points="82.726,317.288 62.037,281.456 41.352,317.288 		"/>
		<polygon opacity="0.5" fill="#FFFFFF" points="41.352,322.221 62.037,358.052 82.726,322.221 		"/>
		<polygon fill="#FFFFFF" points="393.041,424.895 372.352,389.062 351.663,424.895 		"/>
		<polygon opacity="0.5" fill="#FFFFFF" points="320.582,375.96 341.27,411.792 361.957,375.96 		"/>
		<polygon fill="#FFFFFF" points="330.977,424.895 310.289,389.062 289.602,424.895 		"/>
		<polygon fill="#FFFFFF" points="361.957,371.031 341.27,335.198 320.582,371.031 		"/>
		<polygon opacity="0.5" fill="#FFFFFF" points="258.571,375.96 279.258,411.792 299.946,375.96 		"/>
		<polygon fill="#FFFFFF" points="299.946,371.031 279.258,335.197 258.571,371.029 		"/>
		<polygon opacity="0.5" fill="#FFFFFF" points="196.508,375.96 217.196,411.792 237.882,375.96 		"/>
		<polygon fill="#FFFFFF" points="237.882,371.029 217.196,335.197 196.508,371.029 		"/>
		<polygon fill="#FFFFFF" points="268.915,424.894 248.226,389.062 227.538,424.894 		"/>
		<polygon fill="#FFFFFF" points="206.853,424.894 186.165,389.062 165.477,424.894 		"/>
		<polygon opacity="0.5" fill="#FFFFFF" points="134.393,375.96 155.082,411.792 175.769,375.96 		"/>
		<polygon fill="#FFFFFF" points="144.787,424.894 124.101,389.062 103.412,424.894 		"/>
		<polygon fill="#FFFFFF" points="175.769,371.029 155.082,335.197 134.393,371.029 		"/>
		<polygon opacity="0.5" fill="#FFFFFF" points="72.381,375.96 93.067,411.792 113.758,375.96 		"/>
		<polygon fill="#FFFFFF" points="113.758,371.029 93.067,335.197 72.381,371.029 		"/>
		<polygon opacity="0.5" fill="#FFFFFF" points="10.319,375.96 31.007,411.792 51.692,375.96 		"/>
		<polygon fill="#FFFFFF" points="51.692,371.029 31.007,335.197 10.319,371.029 		"/>
		<polygon fill="#FFFFFF" points="82.726,424.894 62.037,389.062 41.352,424.894 		"/>
		<polygon fill="#FFFFFF" points="765.392,102.473 744.704,66.64 724.016,102.473 		"/>
		<polygon opacity="0.5" fill="#FFFFFF" points="692.933,53.54 713.621,89.37 734.309,53.54 		"/>
		<polygon opacity="0.5" fill="#FFFFFF" points="724.016,107.404 744.704,143.235 765.392,107.404 		"/>
		<polygon fill="#FFFFFF" points="703.328,102.47 682.64,66.64 661.954,102.47 		"/>
		<polygon fill="#FFFFFF" points="734.309,48.608 713.621,12.776 692.933,48.608 		"/>
		<polygon opacity="0.5" fill="#FFFFFF" points="630.921,53.54 651.609,89.37 672.296,53.54 		"/>
		<polygon fill="#FFFFFF" points="672.296,48.608 651.609,12.776 630.921,48.608 		"/>
		<polygon opacity="0.5" fill="#FFFFFF" points="568.859,53.54 589.547,89.37 610.233,53.54 		"/>
		<polygon fill="#FFFFFF" points="610.233,48.608 589.547,12.776 568.859,48.608 		"/>
		<polygon opacity="0.5" fill="#FFFFFF" points="661.954,107.403 682.64,143.235 703.328,107.403 		"/>
		<polygon fill="#FFFFFF" points="641.267,102.47 620.579,66.64 599.891,102.47 		"/>
		<polygon opacity="0.5" fill="#FFFFFF" points="599.891,107.403 620.579,143.235 641.267,107.403 		"/>
		<polygon fill="#FFFFFF" points="579.203,102.47 558.516,66.64 537.829,102.47 		"/>
		<polygon opacity="0.5" fill="#FFFFFF" points="506.745,53.54 527.434,89.37 548.12,53.54 		"/>
		<polygon opacity="0.5" fill="#FFFFFF" points="537.829,107.403 558.516,143.235 579.203,107.403 		"/>
		<polygon fill="#FFFFFF" points="517.141,102.47 496.453,66.64 475.764,102.47 		"/>
		<polygon fill="#FFFFFF" points="548.12,48.608 527.434,12.776 506.745,48.608 		"/>
		<polygon opacity="0.5" fill="#FFFFFF" points="444.735,53.54 465.421,89.37 486.108,53.54 		"/>
		<polygon fill="#FFFFFF" points="486.108,48.608 465.421,12.776 444.735,48.608 		"/>
		<polygon opacity="0.5" fill="#FFFFFF" points="382.67,53.54 403.356,89.37 424.045,53.54 		"/>
		<polygon fill="#FFFFFF" points="424.045,48.608 403.356,12.776 382.67,48.608 		"/>
		<polygon opacity="0.5" fill="#FFFFFF" points="475.764,107.403 496.453,143.235 517.141,107.403 		"/>
		<polygon fill="#FFFFFF" points="455.079,102.47 434.39,66.64 413.701,102.47 		"/>
		<polygon opacity="0.5" fill="#FFFFFF" points="413.701,107.403 434.39,143.235 455.079,107.403 		"/>
		<polygon fill="#FFFFFF" points="765.392,210.079 744.704,174.247 724.016,210.079 		"/>
		<polygon opacity="0.5" fill="#FFFFFF" points="692.933,161.145 713.621,196.978 734.309,161.145 		"/>
		<polygon opacity="0.5" fill="#FFFFFF" points="724.016,215.01 744.704,250.841 765.392,215.01 		"/>
		<polygon fill="#FFFFFF" points="703.328,210.077 682.64,174.247 661.954,210.077 		"/>
		<polygon fill="#FFFFFF" points="734.309,156.214 713.621,120.383 692.933,156.213 		"/>
		<polygon opacity="0.5" fill="#FFFFFF" points="630.921,161.145 651.609,196.977 672.296,161.145 		"/>
		<polygon fill="#FFFFFF" points="672.296,156.213 651.609,120.383 630.921,156.213 		"/>
		<polygon opacity="0.5" fill="#FFFFFF" points="568.859,161.145 589.547,196.977 610.233,161.145 		"/>
		<polygon fill="#FFFFFF" points="610.233,156.213 589.547,120.383 568.859,156.213 		"/>
		<polygon opacity="0.5" fill="#FFFFFF" points="661.954,215.009 682.64,250.841 703.328,215.009 		"/>
		<polygon fill="#FFFFFF" points="641.267,210.077 620.579,174.247 599.891,210.077 		"/>
		<polygon opacity="0.5" fill="#FFFFFF" points="599.891,215.009 620.579,250.841 641.267,215.009 		"/>
		<polygon fill="#FFFFFF" points="579.203,210.077 558.516,174.247 537.829,210.077 		"/>
		<polygon opacity="0.5" fill="#FFFFFF" points="506.745,161.145 527.434,196.977 548.12,161.145 		"/>
		<polygon opacity="0.5" fill="#FFFFFF" points="537.829,215.009 558.516,250.841 579.203,215.009 		"/>
		<polygon fill="#FFFFFF" points="517.141,210.077 496.453,174.247 475.764,210.077 		"/>
		<polygon fill="#FFFFFF" points="548.12,156.213 527.434,120.383 506.745,156.213 		"/>
		<polygon opacity="0.5" fill="#FFFFFF" points="444.735,161.145 465.421,196.977 486.108,161.145 		"/>
		<polygon fill="#FFFFFF" points="486.108,156.213 465.421,120.383 444.735,156.213 		"/>
		<polygon opacity="0.5" fill="#FFFFFF" points="382.67,161.145 403.356,196.977 424.045,161.145 		"/>
		<polygon fill="#FFFFFF" points="424.045,156.213 403.356,120.383 382.67,156.213 		"/>
		<polygon opacity="0.5" fill="#FFFFFF" points="724.016,-0.203 744.704,35.629 765.392,-0.203 		"/>
		<polygon opacity="0.5" fill="#FFFFFF" points="661.954,-0.203 682.64,35.629 703.328,-0.203 		"/>
		<polygon opacity="0.5" fill="#FFFFFF" points="599.891,-0.203 620.579,35.629 641.267,-0.203 		"/>
		<polygon opacity="0.5" fill="#FFFFFF" points="537.829,-0.203 558.516,35.629 579.203,-0.203 		"/>
		<polygon opacity="0.5" fill="#FFFFFF" points="475.764,-0.203 496.453,35.629 517.141,-0.203 		"/>
		<polygon opacity="0.5" fill="#FFFFFF" points="413.701,-0.203 434.39,35.629 455.079,-0.203 		"/>
		<polygon opacity="0.5" fill="#FFFFFF" points="475.764,215.009 496.453,250.841 517.141,215.009 		"/>
		<polygon fill="#FFFFFF" points="455.079,210.077 434.39,174.247 413.701,210.077 		"/>
		<polygon opacity="0.5" fill="#FFFFFF" points="413.701,215.009 434.39,250.841 455.079,215.009 		"/>
		<polygon fill="#FFFFFF" points="765.392,317.291 744.704,281.458 724.016,317.291 		"/>
		<polygon opacity="0.5" fill="#FFFFFF" points="692.933,268.357 713.621,304.187 734.309,268.357 		"/>
		<polygon opacity="0.5" fill="#FFFFFF" points="724.016,322.221 744.704,358.053 765.392,322.221 		"/>
		<polygon fill="#FFFFFF" points="703.328,317.29 682.64,281.457 661.954,317.29 		"/>
		<polygon fill="#FFFFFF" points="734.309,263.426 713.621,227.592 692.933,263.424 		"/>
		<polygon opacity="0.5" fill="#FFFFFF" points="630.921,268.357 651.609,304.187 672.296,268.357 		"/>
		<polygon fill="#FFFFFF" points="672.296,263.424 651.609,227.592 630.921,263.424 		"/>
		<polygon opacity="0.5" fill="#FFFFFF" points="568.859,268.357 589.547,304.187 610.233,268.357 		"/>
		<polygon fill="#FFFFFF" points="610.233,263.424 589.547,227.592 568.859,263.424 		"/>
		<polygon opacity="0.5" fill="#FFFFFF" points="661.954,322.221 682.64,358.052 703.328,322.221 		"/>
		<polygon fill="#FFFFFF" points="641.267,317.29 620.579,281.457 599.891,317.29 		"/>
		<polygon opacity="0.5" fill="#FFFFFF" points="599.891,322.221 620.579,358.052 641.267,322.221 		"/>
		<polygon fill="#FFFFFF" points="579.203,317.29 558.516,281.457 537.829,317.29 		"/>
		<polygon opacity="0.5" fill="#FFFFFF" points="506.745,268.357 527.434,304.187 548.12,268.357 		"/>
		<polygon opacity="0.5" fill="#FFFFFF" points="537.829,322.221 558.516,358.052 579.203,322.221 		"/>
		<polygon fill="#FFFFFF" points="517.141,317.29 496.453,281.457 475.764,317.29 		"/>
		<polygon fill="#FFFFFF" points="548.12,263.424 527.434,227.592 506.745,263.424 		"/>
		<polygon opacity="0.5" fill="#FFFFFF" points="444.735,268.357 465.421,304.187 486.108,268.357 		"/>
		<polygon fill="#FFFFFF" points="486.108,263.424 465.421,227.592 444.735,263.424 		"/>
		<polygon opacity="0.5" fill="#FFFFFF" points="382.67,268.357 403.356,304.187 424.045,268.357 		"/>
		<polygon fill="#FFFFFF" points="424.045,263.424 403.356,227.592 382.67,263.424 		"/>
		<polygon opacity="0.5" fill="#FFFFFF" points="475.764,322.221 496.453,358.052 517.141,322.221 		"/>
		<polygon fill="#FFFFFF" points="455.079,317.29 434.39,281.457 413.701,317.29 		"/>
		<polygon opacity="0.5" fill="#FFFFFF" points="413.701,322.221 434.39,358.052 455.079,322.221 		"/>
		<polygon fill="#FFFFFF" points="765.392,424.895 744.704,389.064 724.016,424.895 		"/>
		<polygon opacity="0.5" fill="#FFFFFF" points="692.933,375.96 713.621,411.793 734.309,375.962 		"/>
		<polygon fill="#FFFFFF" points="703.328,424.895 682.64,389.062 661.954,424.895 		"/>
		<polygon fill="#FFFFFF" points="734.309,371.031 713.621,335.198 692.933,371.031 		"/>
		<polygon opacity="0.5" fill="#FFFFFF" points="630.921,375.96 651.609,411.792 672.296,375.96 		"/>
		<polygon fill="#FFFFFF" points="672.296,371.031 651.609,335.198 630.921,371.031 		"/>
		<polygon opacity="0.5" fill="#FFFFFF" points="568.859,375.96 589.547,411.792 610.233,375.96 		"/>
		<polygon fill="#FFFFFF" points="610.233,371.031 589.547,335.198 568.859,371.031 		"/>
		<polygon fill="#FFFFFF" points="641.267,424.895 620.579,389.062 599.891,424.895 		"/>
		<polygon fill="#FFFFFF" points="579.203,424.895 558.516,389.062 537.829,424.895 		"/>
		<polygon opacity="0.5" fill="#FFFFFF" points="506.745,375.96 527.434,411.792 548.12,375.96 		"/>
		<polygon fill="#FFFFFF" points="517.141,424.895 496.453,389.062 475.764,424.895 		"/>
		<polygon fill="#FFFFFF" points="548.12,371.031 527.434,335.198 506.745,371.031 		"/>
		<polygon opacity="0.5" fill="#FFFFFF" points="444.735,375.96 465.421,411.792 486.108,375.96 		"/>
		<polygon fill="#FFFFFF" points="486.108,371.031 465.421,335.198 444.735,371.031 		"/>
		<polygon opacity="0.5" fill="#FFFFFF" points="382.67,375.96 403.356,411.792 424.045,375.96 		"/>
		<polygon fill="#FFFFFF" points="424.045,371.031 403.356,335.198 382.67,371.031 		"/>
		<polygon fill="#FFFFFF" points="455.079,424.895 434.39,389.062 413.701,424.895 		"/>
		<polygon fill="#FFFFFF" points="1075.655,102.473 1054.967,66.64 1034.28,102.473 		"/>
		<polygon opacity="0.5" fill="#FFFFFF" points="1003.196,53.54 1023.885,89.37 1044.574,53.54 		"/>
		<polygon opacity="0.5" fill="#FFFFFF" points="1034.28,107.404 1054.967,143.235 1075.655,107.404 		"/>
		<polygon fill="#FFFFFF" points="1013.591,102.473 992.903,66.64 972.216,102.473 		"/>
		<polygon fill="#FFFFFF" points="1044.574,48.608 1023.885,12.776 1003.196,48.608 		"/>
		<polygon opacity="0.5" fill="#FFFFFF" points="941.185,53.54 961.873,89.37 982.561,53.54 		"/>
		<polygon fill="#FFFFFF" points="982.561,48.608 961.873,12.776 941.185,48.608 		"/>
		<polygon opacity="0.5" fill="#FFFFFF" points="879.122,53.54 899.809,89.37 920.495,53.54 		"/>
		<polygon fill="#FFFFFF" points="920.495,48.608 899.809,12.776 879.122,48.608 		"/>
		<polygon opacity="0.5" fill="#FFFFFF" points="972.216,107.404 992.903,143.235 1013.591,107.404 		"/>
		<polygon fill="#FFFFFF" points="951.53,102.473 930.841,66.64 910.154,102.473 		"/>
		<polygon opacity="0.5" fill="#FFFFFF" points="910.154,107.404 930.841,143.235 951.53,107.404 		"/>
		<polygon fill="#FFFFFF" points="889.467,102.473 868.778,66.64 848.091,102.473 		"/>
		<polygon opacity="0.5" fill="#FFFFFF" points="817.007,53.54 837.696,89.37 858.383,53.54 		"/>
		<polygon opacity="0.5" fill="#FFFFFF" points="848.091,107.404 868.778,143.235 889.467,107.404 		"/>
		<polygon fill="#FFFFFF" points="827.403,102.473 806.716,66.64 786.027,102.473 		"/>
		<polygon fill="#FFFFFF" points="858.383,48.608 837.696,12.776 817.007,48.608 		"/>
		<polygon opacity="0.5" fill="#FFFFFF" points="754.998,53.54 775.684,89.37 796.371,53.54 		"/>
		<polygon fill="#FFFFFF" points="796.371,48.608 775.684,12.776 754.998,48.608 		"/>
		<polygon opacity="0.5" fill="#FFFFFF" points="786.027,107.404 806.716,143.235 827.403,107.404 		"/>
		<polygon fill="#FFFFFF" points="1075.655,210.079 1054.967,174.247 1034.28,210.079 		"/>
		<polygon opacity="0.5" fill="#FFFFFF" points="1003.196,161.145 1023.885,196.978 1044.574,161.145 		"/>
		<polygon opacity="0.5" fill="#FFFFFF" points="1034.28,215.01 1054.967,250.841 1075.655,215.01 		"/>
		<polygon fill="#FFFFFF" points="1013.591,210.079 992.903,174.247 972.216,210.079 		"/>
		<polygon fill="#FFFFFF" points="1044.574,156.214 1023.885,120.383 1003.196,156.214 		"/>
		<polygon opacity="0.5" fill="#FFFFFF" points="941.185,161.145 961.873,196.978 982.561,161.145 		"/>
		<polygon fill="#FFFFFF" points="982.561,156.214 961.873,120.383 941.185,156.214 		"/>
		<polygon opacity="0.5" fill="#FFFFFF" points="879.122,161.145 899.809,196.978 920.495,161.145 		"/>
		<polygon fill="#FFFFFF" points="920.495,156.214 899.809,120.383 879.122,156.214 		"/>
		<polygon opacity="0.5" fill="#FFFFFF" points="972.216,215.01 992.903,250.841 1013.591,215.01 		"/>
		<polygon fill="#FFFFFF" points="951.53,210.079 930.841,174.247 910.154,210.079 		"/>
		<polygon opacity="0.5" fill="#FFFFFF" points="910.154,215.01 930.841,250.841 951.53,215.01 		"/>
		<polygon fill="#FFFFFF" points="889.467,210.079 868.778,174.247 848.091,210.079 		"/>
		<polygon opacity="0.5" fill="#FFFFFF" points="817.007,161.145 837.696,196.978 858.383,161.145 		"/>
		<polygon opacity="0.5" fill="#FFFFFF" points="848.091,215.01 868.778,250.841 889.467,215.01 		"/>
		<polygon fill="#FFFFFF" points="827.403,210.079 806.716,174.247 786.027,210.079 		"/>
		<polygon fill="#FFFFFF" points="858.383,156.214 837.696,120.383 817.007,156.214 		"/>
		<polygon opacity="0.5" fill="#FFFFFF" points="754.998,161.145 775.684,196.978 796.371,161.145 		"/>
		<polygon fill="#FFFFFF" points="796.371,156.214 775.684,120.383 754.998,156.214 		"/>
		<polygon opacity="0.5" fill="#FFFFFF" points="1034.28,-0.203 1054.967,35.629 1075.655,-0.203 		"/>
		<polygon opacity="0.5" fill="#FFFFFF" points="972.216,-0.203 992.903,35.629 1013.591,-0.203 		"/>
		<polygon opacity="0.5" fill="#FFFFFF" points="910.154,-0.203 930.841,35.629 951.53,-0.203 		"/>
		<polygon opacity="0.5" fill="#FFFFFF" points="848.091,-0.203 868.778,35.629 889.467,-0.203 		"/>
		<polygon opacity="0.5" fill="#FFFFFF" points="786.027,-0.203 806.716,35.629 827.403,-0.203 		"/>
		<polygon opacity="0.5" fill="#FFFFFF" points="786.027,215.01 806.716,250.841 827.403,215.01 		"/>
		<polygon fill="#FFFFFF" points="1075.655,317.291 1054.967,281.458 1034.28,317.291 		"/>
		<polygon opacity="0.5" fill="#FFFFFF" points="1003.196,268.357 1023.885,304.187 1044.574,268.357 		"/>
		<polygon opacity="0.5" fill="#FFFFFF" points="1034.28,322.221 1054.967,358.053 1075.655,322.221 		"/>
		<polygon fill="#FFFFFF" points="1013.591,317.291 992.903,281.458 972.216,317.291 		"/>
		<polygon fill="#FFFFFF" points="1044.574,263.426 1023.885,227.592 1003.196,263.426 		"/>
		<polygon opacity="0.5" fill="#FFFFFF" points="941.185,268.357 961.873,304.187 982.561,268.357 		"/>
		<polygon fill="#FFFFFF" points="982.561,263.426 961.873,227.592 941.185,263.426 		"/>
		<polygon opacity="0.5" fill="#FFFFFF" points="879.122,268.357 899.809,304.187 920.495,268.357 		"/>
		<polygon fill="#FFFFFF" points="920.495,263.426 899.809,227.592 879.122,263.426 		"/>
		<polygon opacity="0.5" fill="#FFFFFF" points="972.216,322.221 992.903,358.053 1013.591,322.221 		"/>
		<polygon fill="#FFFFFF" points="951.53,317.291 930.841,281.458 910.154,317.291 		"/>
		<polygon opacity="0.5" fill="#FFFFFF" points="910.154,322.221 930.841,358.053 951.53,322.221 		"/>
		<polygon fill="#FFFFFF" points="889.467,317.291 868.778,281.458 848.091,317.291 		"/>
		<polygon opacity="0.5" fill="#FFFFFF" points="817.007,268.357 837.696,304.187 858.383,268.357 		"/>
		<polygon opacity="0.5" fill="#FFFFFF" points="848.091,322.221 868.778,358.053 889.467,322.221 		"/>
		<polygon fill="#FFFFFF" points="827.403,317.291 806.716,281.458 786.027,317.291 		"/>
		<polygon fill="#FFFFFF" points="858.383,263.426 837.696,227.592 817.007,263.426 		"/>
		<polygon opacity="0.5" fill="#FFFFFF" points="754.998,268.357 775.684,304.187 796.371,268.357 		"/>
		<polygon fill="#FFFFFF" points="796.371,263.426 775.684,227.592 754.998,263.426 		"/>
		<polygon opacity="0.5" fill="#FFFFFF" points="786.027,322.221 806.716,358.053 827.403,322.221 		"/>
		<polygon fill="#FFFFFF" points="1075.655,424.895 1054.967,389.064 1034.28,424.895 		"/>
		<polygon opacity="0.5" fill="#FFFFFF" points="1003.196,375.962 1023.885,411.793 1044.574,375.962 		"/>
		<polygon fill="#FFFFFF" points="1013.591,424.895 992.903,389.064 972.216,424.895 		"/>
		<polygon fill="#FFFFFF" points="1044.574,371.031 1023.885,335.198 1003.196,371.031 		"/>
		<polygon opacity="0.5" fill="#FFFFFF" points="941.185,375.962 961.873,411.793 982.561,375.962 		"/>
		<polygon fill="#FFFFFF" points="982.561,371.031 961.873,335.198 941.185,371.031 		"/>
		<polygon opacity="0.5" fill="#FFFFFF" points="879.122,375.962 899.809,411.793 920.495,375.962 		"/>
		<polygon fill="#FFFFFF" points="920.495,371.031 899.809,335.198 879.122,371.031 		"/>
		<polygon fill="#FFFFFF" points="951.53,424.895 930.841,389.064 910.154,424.895 		"/>
		<polygon fill="#FFFFFF" points="889.467,424.895 868.778,389.064 848.091,424.895 		"/>
		<polygon opacity="0.5" fill="#FFFFFF" points="817.007,375.962 837.696,411.793 858.383,375.962 		"/>
		<polygon fill="#FFFFFF" points="827.403,424.895 806.716,389.064 786.027,424.895 		"/>
		<polygon fill="#FFFFFF" points="858.383,371.031 837.696,335.198 817.007,371.031 		"/>
		<polygon opacity="0.5" fill="#FFFFFF" points="754.998,375.962 775.684,411.793 796.371,375.962 		"/>
		<polygon fill="#FFFFFF" points="796.371,371.031 775.684,335.198 754.998,371.031 		"/>
		<g opacity="0.5">
			<polygon fill="#FFFFFF" points="0,-0.314 0,35.52 20.686,-0.314 			"/>
		</g>
		<g>
			<polygon fill="#FFFFFF" points="0,66.528 0,102.361 20.686,102.361 			"/>
			<polygon opacity="0.5" fill="#FFFFFF" points="0,107.292 0,143.125 20.686,107.292 			"/>
		</g>
		<g>
			<polygon fill="#FFFFFF" points="0,173.742 0,209.572 20.686,209.572 			"/>
			<polygon opacity="0.5" fill="#FFFFFF" points="0,214.503 0,250.335 20.686,214.503 			"/>
		</g>
		<g>
			<polygon fill="#FFFFFF" points="0,281.347 0,317.179 20.686,317.179 			"/>
			<polygon opacity="0.5" fill="#FFFFFF" points="0,322.111 0,357.942 20.686,322.111 			"/>
		</g>
		<g>
			<polygon fill="#FFFFFF" points="0,388.953 0,424.785 20.686,424.785 			"/>
		</g>
		<polygon fill="#FFFFFF" points="1385.944,102.47 1365.256,66.64 1344.57,102.47 		"/>
		<polygon opacity="0.5" fill="#FFFFFF" points="1313.539,53.54 1334.226,89.37 1354.914,53.54 		"/>
		<polygon fill="#FFFFFF" points="1354.914,48.608 1334.226,12.775 1313.539,48.606 		"/>
		<polygon opacity="0.5" fill="#FFFFFF" points="1251.476,53.54 1272.164,89.37 1292.85,53.54 		"/>
		<polygon fill="#FFFFFF" points="1292.85,48.606 1272.164,12.775 1251.476,48.606 		"/>
		<polygon opacity="0.5" fill="#FFFFFF" points="1344.57,107.403 1365.256,143.235 1385.944,107.403 		"/>
		<polygon fill="#FFFFFF" points="1323.883,102.47 1303.194,66.639 1282.506,102.47 		"/>
		<polygon opacity="0.5" fill="#FFFFFF" points="1282.506,107.403 1303.194,143.235 1323.883,107.403 		"/>
		<polygon fill="#FFFFFF" points="1261.82,102.47 1241.132,66.639 1220.444,102.47 		"/>
		<polygon opacity="0.5" fill="#FFFFFF" points="1189.361,53.54 1210.05,89.37 1230.737,53.54 		"/>
		<polygon opacity="0.5" fill="#FFFFFF" points="1220.444,107.403 1241.132,143.235 1261.82,107.403 		"/>
		<polygon fill="#FFFFFF" points="1199.756,102.47 1179.068,66.639 1158.38,102.47 		"/>
		<polygon fill="#FFFFFF" points="1230.737,48.606 1210.05,12.775 1189.361,48.606 		"/>
		<polygon opacity="0.5" fill="#FFFFFF" points="1127.349,53.54 1148.036,89.37 1168.726,53.54 		"/>
		<polygon fill="#FFFFFF" points="1168.726,48.606 1148.036,12.775 1127.349,48.606 		"/>
		<polygon opacity="0.5" fill="#FFFFFF" points="1065.287,53.54 1085.975,89.37 1106.661,53.54 		"/>
		<polygon fill="#FFFFFF" points="1106.661,48.606 1085.975,12.775 1065.287,48.606 		"/>
		<polygon opacity="0.5" fill="#FFFFFF" points="1158.38,107.403 1179.068,143.235 1199.756,107.403 		"/>
		<polygon fill="#FFFFFF" points="1137.694,102.47 1117.005,66.639 1096.32,102.47 		"/>
		<polygon opacity="0.5" fill="#FFFFFF" points="1096.32,107.403 1117.005,143.235 1137.694,107.403 		"/>
		<polygon fill="#FFFFFF" points="1385.944,210.077 1365.256,174.247 1344.57,210.077 		"/>
		<polygon opacity="0.5" fill="#FFFFFF" points="1313.539,161.145 1334.226,196.977 1354.914,161.145 		"/>
		<polygon fill="#FFFFFF" points="1354.914,156.213 1334.226,120.381 1313.539,156.211 		"/>
		<polygon opacity="0.5" fill="#FFFFFF" points="1251.476,161.145 1272.164,196.977 1292.85,161.145 		"/>
		<polygon fill="#FFFFFF" points="1292.85,156.211 1272.164,120.381 1251.476,156.211 		"/>
		<polygon opacity="0.5" fill="#FFFFFF" points="1344.57,215.009 1365.256,250.841 1385.944,215.009 		"/>
		<polygon fill="#FFFFFF" points="1323.883,210.077 1303.194,174.247 1282.506,210.077 		"/>
		<polygon opacity="0.5" fill="#FFFFFF" points="1282.506,215.007 1303.194,250.841 1323.883,215.007 		"/>
		<polygon fill="#FFFFFF" points="1261.82,210.077 1241.132,174.247 1220.444,210.077 		"/>
		<polygon opacity="0.5" fill="#FFFFFF" points="1189.361,161.145 1210.05,196.977 1230.737,161.145 		"/>
		<polygon opacity="0.5" fill="#FFFFFF" points="1220.444,215.007 1241.132,250.841 1261.82,215.007 		"/>
		<polygon fill="#FFFFFF" points="1199.756,210.077 1179.068,174.247 1158.38,210.077 		"/>
		<polygon fill="#FFFFFF" points="1230.737,156.211 1210.05,120.381 1189.361,156.211 		"/>
		<polygon opacity="0.5" fill="#FFFFFF" points="1127.349,161.145 1148.036,196.977 1168.726,161.145 		"/>
		<polygon fill="#FFFFFF" points="1168.726,156.211 1148.036,120.381 1127.349,156.211 		"/>
		<polygon opacity="0.5" fill="#FFFFFF" points="1065.287,161.145 1085.975,196.977 1106.661,161.145 		"/>
		<polygon fill="#FFFFFF" points="1106.661,156.211 1085.975,120.381 1065.287,156.211 		"/>
		<polygon opacity="0.5" fill="#FFFFFF" points="1344.57,-0.203 1365.256,35.629 1385.944,-0.203 		"/>
		<polygon opacity="0.5" fill="#FFFFFF" points="1282.506,-0.203 1303.194,35.629 1323.883,-0.203 		"/>
		<polygon opacity="0.5" fill="#FFFFFF" points="1220.444,-0.203 1241.132,35.629 1261.82,-0.203 		"/>
		<polygon opacity="0.5" fill="#FFFFFF" points="1158.38,-0.203 1179.068,35.629 1199.756,-0.203 		"/>
		<polygon opacity="0.5" fill="#FFFFFF" points="1096.32,-0.203 1117.005,35.629 1137.694,-0.203 		"/>
		<polygon opacity="0.5" fill="#FFFFFF" points="1158.38,215.007 1179.068,250.841 1199.756,215.007 		"/>
		<polygon fill="#FFFFFF" points="1137.694,210.077 1117.005,174.247 1096.32,210.077 		"/>
		<polygon opacity="0.5" fill="#FFFFFF" points="1096.32,215.007 1117.005,250.841 1137.694,215.007 		"/>
		<polygon fill="#FFFFFF" points="1385.944,317.29 1365.256,281.457 1344.57,317.29 		"/>
		<polygon opacity="0.5" fill="#FFFFFF" points="1313.539,268.354 1334.226,304.187 1354.914,268.357 		"/>
		<polygon fill="#FFFFFF" points="1354.914,263.424 1334.226,227.592 1313.539,263.424 		"/>
		<polygon opacity="0.5" fill="#FFFFFF" points="1251.476,268.354 1272.164,304.187 1292.85,268.354 		"/>
		<polygon fill="#FFFFFF" points="1292.85,263.424 1272.164,227.592 1251.476,263.424 		"/>
		<polygon opacity="0.5" fill="#FFFFFF" points="1344.57,322.221 1365.256,358.052 1385.944,322.221 		"/>
		<polygon fill="#FFFFFF" points="1323.883,317.288 1303.194,281.456 1282.506,317.288 		"/>
		<polygon opacity="0.5" fill="#FFFFFF" points="1282.506,322.221 1303.194,358.052 1323.883,322.221 		"/>
		<polygon fill="#FFFFFF" points="1261.82,317.288 1241.132,281.456 1220.444,317.288 		"/>
		<polygon opacity="0.5" fill="#FFFFFF" points="1189.361,268.354 1210.05,304.187 1230.737,268.354 		"/>
		<polygon opacity="0.5" fill="#FFFFFF" points="1220.444,322.221 1241.132,358.052 1261.82,322.221 		"/>
		<polygon fill="#FFFFFF" points="1199.756,317.288 1179.068,281.456 1158.38,317.288 		"/>
		<polygon fill="#FFFFFF" points="1230.737,263.424 1210.05,227.592 1189.361,263.424 		"/>
		<polygon opacity="0.5" fill="#FFFFFF" points="1127.349,268.354 1148.036,304.187 1168.726,268.354 		"/>
		<polygon fill="#FFFFFF" points="1168.726,263.424 1148.036,227.592 1127.349,263.424 		"/>
		<polygon opacity="0.5" fill="#FFFFFF" points="1065.287,268.354 1085.975,304.187 1106.661,268.354 		"/>
		<polygon fill="#FFFFFF" points="1106.661,263.424 1085.975,227.592 1065.287,263.424 		"/>
		<polygon opacity="0.5" fill="#FFFFFF" points="1158.38,322.221 1179.068,358.052 1199.756,322.221 		"/>
		<polygon fill="#FFFFFF" points="1137.694,317.288 1117.005,281.456 1096.32,317.288 		"/>
		<polygon opacity="0.5" fill="#FFFFFF" points="1096.32,322.221 1117.005,358.052 1137.694,322.221 		"/>
		<polygon fill="#FFFFFF" points="1385.944,424.895 1365.256,389.062 1344.57,424.895 		"/>
		<polygon opacity="0.5" fill="#FFFFFF" points="1313.539,375.96 1334.226,411.792 1354.914,375.96 		"/>
		<polygon fill="#FFFFFF" points="1354.914,371.031 1334.226,335.197 1313.539,371.029 		"/>
		<polygon opacity="0.5" fill="#FFFFFF" points="1251.476,375.96 1272.164,411.792 1292.85,375.96 		"/>
		<polygon fill="#FFFFFF" points="1292.85,371.029 1272.164,335.197 1251.476,371.029 		"/>
		<polygon fill="#FFFFFF" points="1323.883,424.894 1303.194,389.062 1282.506,424.894 		"/>
		<polygon fill="#FFFFFF" points="1261.82,424.894 1241.132,389.062 1220.444,424.894 		"/>
		<polygon opacity="0.5" fill="#FFFFFF" points="1189.361,375.96 1210.05,411.792 1230.737,375.96 		"/>
		<polygon fill="#FFFFFF" points="1199.756,424.894 1179.068,389.062 1158.38,424.894 		"/>
		<polygon fill="#FFFFFF" points="1230.737,371.029 1210.05,335.197 1189.361,371.029 		"/>
		<polygon opacity="0.5" fill="#FFFFFF" points="1127.349,375.96 1148.036,411.792 1168.726,375.96 		"/>
		<polygon fill="#FFFFFF" points="1168.726,371.029 1148.036,335.197 1127.349,371.029 		"/>
		<polygon opacity="0.5" fill="#FFFFFF" points="1065.287,375.96 1085.975,411.792 1106.661,375.96 		"/>
		<polygon fill="#FFFFFF" points="1106.661,371.029 1085.975,335.197 1065.287,371.029 		"/>
		<polygon fill="#FFFFFF" points="1137.694,424.894 1117.005,389.062 1096.32,424.894 		"/>
	</g>
</g>
<g id="Layer_3">
</g>
</svg>
