<?xml version="1.0" encoding="utf-8"?>
<!-- Generator: Adobe Illustrator 16.0.0, SVG Export Plug-In . SVG Version: 6.00 Build 0)  -->
<!DOCTYPE svg PUBLIC "-//W3C//DTD SVG 1.1//EN" "http://www.w3.org/Graphics/SVG/1.1/DTD/svg11.dtd">
<svg version="1.1" xmlns="http://www.w3.org/2000/svg" xmlns:xlink="http://www.w3.org/1999/xlink" x="0px" y="0px" width="437px"
	 height="976px" viewBox="0 0 437 976" enable-background="new 0 0 437 976" xml:space="preserve" id="homepage-pattern-2">

<style>
	#homepage-pattern-2 path,
	#homepage-pattern-2 rect {
		fill: #0076D1;
	}
</style>

<g id="Layer_3">
	<g opacity="0.1">
		<defs>
			<rect id="SVGID_415_" opacity="0.1" width="437" height="976"/>
		</defs>
		<clipPath id="SVGID_2_">
			<use xlink:href="#SVGID_415_"  overflow="visible"/>
		</clipPath>
		<g clip-path="url(#SVGID_2_)">
			<g>
				<g>
					<path fill="#FFFFFF" d="M158.596,276.929l-39.656,39.657l39.656,39.658l39.658-39.658L158.596,276.929z M135.934,316.586       l22.662-22.662l22.662,22.662l-22.662,22.663L135.934,316.586z"/>
					
						<rect x="150.584" y="308.575" transform="matrix(0.7071 0.7071 -0.7071 0.7071 270.3192 -19.4157)" fill="#FFFFFF" width="16.023" height="16.023"/>
				</g>
				<g>
					<path fill="#FFFFFF" d="M198.254,118.642l-39.658,39.658l39.658,39.658l39.658-39.658L198.254,118.642z M175.592,158.299       l22.662-22.662l22.662,22.662l-22.662,22.662L175.592,158.299z"/>
				</g>
				
				
				
				<g>
					<path fill="#FFFFFF" d="M198.254,13.125l-39.658,39.658l39.658,39.657l39.658-39.657L198.254,13.125z M175.592,52.782       l22.662-22.661l22.662,22.661l-22.662,22.662L175.592,52.782z"/>
					
						<rect x="190.242" y="44.77" transform="matrix(0.7071 0.7071 -0.7071 0.7071 95.3896 -124.7273)" fill="#FFFFFF" width="16.023" height="16.024"/>
				</g>
				
				
				
				
				
					<rect x="190.242" y="44.77" transform="matrix(0.7071 0.7071 -0.7071 0.7071 95.3896 -124.7273)" fill="#FFFFFF" width="16.023" height="16.024"/>
				
					<rect x="190.242" y="150.335" transform="matrix(0.7071 0.7071 -0.7071 0.7071 170.041 -93.8085)" fill="#FFFFFF" width="16.023" height="16.023"/>
				
					
				
					
				<g>
					<path fill="#FFFFFF" d="M317.227,65.884L277.57,105.54l39.656,39.658l39.658-39.658L317.227,65.884z M294.566,105.54       l22.66-22.661l22.662,22.661l-22.662,22.662L294.566,105.54z"/>
					
						<rect x="309.214" y="97.53" transform="matrix(0.7071 0.7072 -0.7072 0.7071 167.5616 -193.4105)" fill="#FFFFFF" width="16.024" height="16.023"/>
				</g>
				<g>
					<path fill="#FFFFFF" d="M277.57,118.642l-39.658,39.658l39.658,39.658l39.656-39.658L277.57,118.642z M254.908,158.299       l22.662-22.662l22.66,22.662l-22.66,22.662L254.908,158.299z"/>
				</g>
				<g>
					<path fill="#FFFFFF" d="M237.912,65.884l-39.658,39.656l39.658,39.658l39.658-39.658L237.912,65.884z M215.25,105.54       l22.662-22.661l22.66,22.661l-22.66,22.662L215.25,105.54z"/>
					
						<rect x="229.899" y="97.529" transform="matrix(0.7071 0.7071 -0.7071 0.7071 144.3064 -137.315)" fill="#FFFFFF" width="16.026" height="16.024"/>
				</g>
				<g>
					<path fill="#FFFFFF" d="M158.596,171.343l-39.656,39.658l39.656,39.657l39.658-39.657L158.596,171.343z M135.934,211.001       l22.662-22.661l22.662,22.661l-22.662,22.661L135.934,211.001z"/>
					
						<rect x="150.584" y="202.989" transform="matrix(0.7071 0.7071 -0.7071 0.7071 195.6515 -50.3435)" fill="#FFFFFF" width="16.023" height="16.024"/>
				</g>
				
				
				<g>
					<path fill="#FFFFFF" d="M317.227,171.343l-39.656,39.658l39.656,39.657l39.658-39.657L317.227,171.343z M294.566,211.001       l22.66-22.661l22.662,22.661l-22.662,22.661L294.566,211.001z"/>
					
						<rect x="309.215" y="202.989" transform="matrix(0.7071 0.7071 -0.7071 0.7071 242.1134 -162.5125)" fill="#FFFFFF" width="16.023" height="16.024"/>
				</g>
				<g>
					<path fill="#FFFFFF" d="M237.912,171.343l-39.658,39.658l39.658,39.657l39.658-39.657L237.912,171.343z M215.25,211.001       l22.662-22.661l22.66,22.661l-22.66,22.661L215.25,211.001z"/>
					
						<rect x="229.9" y="202.988" transform="matrix(0.7072 0.707 -0.707 0.7072 218.8554 -106.427)" fill="#FFFFFF" width="16.025" height="16.025"/>
				</g>
				
				
				
				
				
				<g>
					<path fill="#FFFFFF" d="M277.57,13.125l-39.658,39.658l39.658,39.657l39.656-39.657L277.57,13.125z M254.908,52.782       l22.662-22.661l22.66,22.661l-22.66,22.662L254.908,52.782z"/>
					
						<rect x="269.558" y="44.769" transform="matrix(0.7072 0.707 -0.707 0.7072 118.6007 -180.7987)" fill="#FFFFFF" width="16.025" height="16.025"/>
				</g>
				
					<rect x="269.558" y="150.335" transform="matrix(0.7072 0.7071 -0.7071 0.7072 193.2469 -149.8876)" fill="#FFFFFF" width="16.025" height="16.025"/>
				<g>
					<path fill="#FFFFFF" d="M198.254,329.688l-39.658,39.657l39.658,39.658l39.658-39.658L198.254,329.688z M175.592,369.345       l22.662-22.661l22.662,22.661l-22.662,22.661L175.592,369.345z"/>
				</g>
				<g>
					<path fill="#FFFFFF" d="M118.939,329.688l-39.658,39.657l39.658,39.658l39.656-39.658L118.939,329.688z M96.275,369.345       l22.664-22.661l22.66,22.661l-22.66,22.661L96.275,369.345z"/>
				</g>
				
				<g>
					<path fill="#FFFFFF" d="M198.254,224.17l-39.658,39.657l39.658,39.658l39.658-39.658L198.254,224.17z M175.592,263.828       l22.662-22.661l22.662,22.661l-22.662,22.661L175.592,263.828z"/>
					
						<rect x="190.242" y="255.816" transform="matrix(0.7071 0.7071 -0.7071 0.7071 244.6286 -62.9124)" fill="#FFFFFF" width="16.023" height="16.023"/>
				</g>
				
				
				
				
				
					<rect x="190.242" y="255.816" transform="matrix(0.7071 0.7071 -0.7071 0.7071 244.6286 -62.9124)" fill="#FFFFFF" width="16.023" height="16.023"/>
				
					<rect x="190.242" y="361.382" transform="matrix(0.7071 0.7071 -0.7071 0.7071 319.2852 -31.9886)" fill="#FFFFFF" width="16.024" height="16.022"/>
				
					<rect x="110.927" y="361.382" transform="matrix(0.7071 0.7071 -0.7071 0.7071 296.0224 24.0823)" fill="#FFFFFF" width="16.025" height="16.024"/>
				
					
				<g>
					<path fill="#FFFFFF" d="M475.861,276.929l-39.658,39.657l39.658,39.658l39.658-39.658L475.861,276.929z M453.199,316.586       l22.662-22.662l22.662,22.662l-22.662,22.663L453.199,316.586z"/>
					
						<rect x="467.85" y="308.575" transform="matrix(0.7071 0.7071 -0.7071 0.7071 363.249 -243.7612)" fill="#FFFFFF" width="16.023" height="16.023"/>
				</g>
				
				<g>
					<path fill="#FFFFFF" d="M475.861,65.884l-39.658,39.656l39.658,39.658l39.658-39.658L475.861,65.884z M453.199,105.54       l22.662-22.661l22.662,22.661l-22.662,22.662L453.199,105.54z"/>
					
						<rect x="467.849" y="97.53" transform="matrix(0.7071 0.7072 -0.7072 0.7071 214.0319 -305.5894)" fill="#FFFFFF" width="16.024" height="16.023"/>
				</g>
				<g>
					<path fill="#FFFFFF" d="M396.547,65.884l-39.658,39.656l39.658,39.658l39.658-39.658L396.547,65.884z M373.885,105.54       l22.662-22.661l22.662,22.661l-22.662,22.662L373.885,105.54z"/>
					
						<rect x="388.535" y="97.53" transform="matrix(0.7071 0.7072 -0.7072 0.7071 190.7976 -249.502)" fill="#FFFFFF" width="16.024" height="16.023"/>
				</g>
				
				<g>
					<path fill="#FFFFFF" d="M356.889,118.642l-39.658,39.658l39.658,39.658l39.658-39.658L356.889,118.642z M334.227,158.299       l22.662-22.662l22.662,22.662l-22.662,22.662L334.227,158.299z"/>
				</g>
				<g>
					<path fill="#FFFFFF" d="M356.889,13.125L317.23,52.782l39.658,39.657l39.658-39.657L356.889,13.125z M334.227,52.782       l22.662-22.661l22.662,22.661l-22.662,22.662L334.227,52.782z"/>
					
						<rect x="348.877" y="44.77" transform="matrix(0.7071 0.7071 -0.7071 0.7071 141.8526 -236.899)" fill="#FFFFFF" width="16.023" height="16.024"/>
				</g>
				
					
				
					<rect x="348.877" y="150.335" transform="matrix(0.7071 0.7071 -0.7071 0.7071 216.5065 -205.9826)" fill="#FFFFFF" width="16.023" height="16.023"/>
				<g>
					<path fill="#FFFFFF" d="M475.861,171.343l-39.658,39.658l39.658,39.657l39.658-39.657L475.861,171.343z M453.199,211.001       l22.662-22.661l22.662,22.661l-22.662,22.661L453.199,211.001z"/>
					
						<rect x="467.85" y="202.989" transform="matrix(0.7071 0.7071 -0.7071 0.7071 288.5764 -274.6841)" fill="#FFFFFF" width="16.023" height="16.024"/>
				</g>
				<g>
					<path fill="#FFFFFF" d="M396.547,171.343l-39.658,39.658l39.658,39.657l39.658-39.657L396.547,171.343z M373.885,211.001       l22.662-22.661l22.662,22.661l-22.662,22.661L373.885,211.001z"/>
					
						<rect x="388.535" y="202.989" transform="matrix(0.7071 0.7071 -0.7071 0.7071 265.3458 -218.6003)" fill="#FFFFFF" width="16.023" height="16.024"/>
				</g>
				<g>
					<path fill="#FFFFFF" d="M475.861-39.658L436.203,0l39.658,39.658L515.52,0L475.861-39.658z M453.199,0l22.662-22.662L498.523,0       l-22.662,22.662L453.199,0z"/>
					
						<rect x="467.849" y="-8.011" transform="matrix(0.7071 0.7071 -0.7071 0.7071 139.3916 -336.4991)" fill="#FFFFFF" width="16.024" height="16.023"/>
				</g>
				
				
				<g>
					<path fill="#FFFFFF" d="M396.547,276.929l-39.658,39.657l39.658,39.658l39.658-39.658L396.547,276.929z M373.885,316.586       l22.662-22.662l22.662,22.662l-22.662,22.663L373.885,316.586z"/>
					
						<rect x="388.535" y="308.575" transform="matrix(0.7071 0.7071 -0.7071 0.7071 340.0172 -187.6762)" fill="#FFFFFF" width="16.023" height="16.023"/>
				</g>
				
				<g>
					<path fill="#FFFFFF" d="M356.889,329.688l-39.658,39.657l39.658,39.658l39.658-39.658L356.889,329.688z M334.227,369.345       l22.662-22.661l22.662,22.661l-22.662,22.661L334.227,369.345z"/>
				</g>
				<g>
					<path fill="#FFFFFF" d="M317.23,276.929l-39.656,39.657l39.656,39.658l39.658-39.658L317.23,276.929z M294.57,316.586       l22.66-22.662l22.662,22.662l-22.662,22.663L294.57,316.586z"/>
					
						<rect x="309.219" y="308.575" transform="matrix(0.7071 0.7071 -0.7071 0.7071 316.7847 -131.5898)" fill="#FFFFFF" width="16.023" height="16.023"/>
				</g>
				<g>
					<path fill="#FFFFFF" d="M356.889,224.17l-39.658,39.657l39.658,39.658l39.658-39.658L356.889,224.17z M334.227,263.828       l22.662-22.661l22.662,22.661l-22.662,22.661L334.227,263.828z"/>
					
						<rect x="348.877" y="255.816" transform="matrix(0.7071 0.7071 -0.7071 0.7071 291.0941 -175.0865)" fill="#FFFFFF" width="16.023" height="16.023"/>
				</g>
				
					
				
					<rect x="348.877" y="361.382" transform="matrix(0.7071 0.7071 -0.7071 0.7071 365.7531 -144.1652)" fill="#FFFFFF" width="16.024" height="16.022"/>
				<g>
					<path fill="#FFFFFF" d="M317.227,276.929l-39.656,39.657l39.656,39.658l39.658-39.657L317.227,276.929z M294.566,316.587       l22.66-22.663l22.662,22.663l-22.662,22.662L294.566,316.587z"/>
					
						<rect x="309.215" y="308.575" transform="matrix(0.7071 0.7071 -0.7071 0.7071 316.7643 -131.587)" fill="#FFFFFF" width="16.023" height="16.023"/>
				</g>
				<g>
					<path fill="#FFFFFF" d="M277.57,329.688l-39.658,39.657l39.658,39.658l39.656-39.658L277.57,329.688z M254.908,369.345       l22.662-22.661l22.66,22.661l-22.66,22.661L254.908,369.345z"/>
				</g>
				<g>
					<path fill="#FFFFFF" d="M237.912,276.929l-39.658,39.657l39.658,39.658l39.658-39.658L237.912,276.929z M215.25,316.586       l22.662-22.662l22.66,22.662l-22.66,22.663L215.25,316.586z"/>
					
						<rect x="229.9" y="308.574" transform="matrix(0.7072 0.7071 -0.7071 0.7072 293.5179 -75.5068)" fill="#FFFFFF" width="16.025" height="16.024"/>
				</g>
				<g>
					<path fill="#FFFFFF" d="M277.57,224.17l-39.658,39.657l39.658,39.658l39.656-39.658L277.57,224.17z M254.908,263.828       l22.662-22.661l22.66,22.661l-22.66,22.661L254.908,263.828z"/>
					
						<rect x="269.558" y="255.815" transform="matrix(0.7072 0.7071 -0.7071 0.7072 267.828 -118.9979)" fill="#FFFFFF" width="16.025" height="16.025"/>
				</g>
				
					<rect x="269.558" y="361.382" transform="matrix(0.7071 0.7071 -0.7071 0.7071 342.4794 -88.0818)" fill="#FFFFFF" width="16.025" height="16.024"/>
				<g>
					<path fill="#FFFFFF" d="M158.596,382.475l-39.656,39.657l39.656,39.658l39.658-39.658L158.596,382.475z M135.934,422.132       l22.662-22.662l22.662,22.662l-22.662,22.663L135.934,422.132z"/>
					
						<rect x="150.584" y="414.121" transform="matrix(0.7071 0.7071 -0.7071 0.7071 344.9531 11.4996)" fill="#FFFFFF" width="16.023" height="16.023"/>
				</g>
				
				
				<g>
					<path fill="#FFFFFF" d="M475.861,382.475l-39.658,39.657l39.658,39.658l39.658-39.658L475.861,382.475z M453.199,422.132       l22.662-22.662l22.662,22.662l-22.662,22.663L453.199,422.132z"/>
					
						<rect x="467.85" y="414.121" transform="matrix(0.7071 0.7071 -0.7071 0.7071 437.8828 -212.8459)" fill="#FFFFFF" width="16.023" height="16.023"/>
				</g>
				<g>
					<path fill="#FFFFFF" d="M396.547,382.475l-39.658,39.657l39.658,39.658l39.658-39.658L396.547,382.475z M373.885,422.132       l22.662-22.662l22.662,22.662l-22.662,22.663L373.885,422.132z"/>
					
						<rect x="388.535" y="414.121" transform="matrix(0.7071 0.7071 -0.7071 0.7071 414.651 -156.7609)" fill="#FFFFFF" width="16.023" height="16.023"/>
				</g>
				<g>
					<path fill="#FFFFFF" d="M317.23,382.475l-39.656,39.657l39.656,39.658l39.658-39.658L317.23,382.475z M294.57,422.132       l22.66-22.662l22.662,22.662l-22.662,22.663L294.57,422.132z"/>
					
						<rect x="309.219" y="414.121" transform="matrix(0.7071 0.7071 -0.7071 0.7071 391.4185 -100.6746)" fill="#FFFFFF" width="16.023" height="16.023"/>
				</g>
				<g>
					<path fill="#FFFFFF" d="M317.227,382.475l-39.656,39.657l39.656,39.658l39.658-39.657L317.227,382.475z M294.566,422.133       l22.66-22.663l22.662,22.663l-22.662,22.662L294.566,422.133z"/>
					
						<rect x="309.215" y="414.121" transform="matrix(0.7071 0.7071 -0.7071 0.7071 391.3949 -100.6749)" fill="#FFFFFF" width="16.023" height="16.023"/>
				</g>
				<g>
					<path fill="#FFFFFF" d="M237.912,382.475l-39.658,39.657l39.658,39.658l39.658-39.658L237.912,382.475z M215.25,422.132       l22.662-22.662l22.66,22.662l-22.66,22.663L215.25,422.132z"/>
					
						<rect x="229.9" y="414.12" transform="matrix(0.7072 0.7071 -0.7071 0.7072 368.1453 -44.598)" fill="#FFFFFF" width="16.025" height="16.024"/>
				</g>
			</g>
			<g transform="translate(-513.45 475)">
				<g>
					<path fill="#FFFFFF" d="M633.905,276.929l-39.656,39.657l39.656,39.658l39.658-39.658L633.905,276.929z M611.243,316.586       l22.662-22.662l22.662,22.662l-22.662,22.663L611.243,316.586z"/>
					
						<rect x="625.894" y="308.575" transform="matrix(0.7071 0.7071 -0.7071 0.7071 409.5414 -355.5176)" fill="#FFFFFF" width="16.023" height="16.023"/>
				</g>
				<g>
					<path fill="#FFFFFF" d="M673.563,118.642l-39.658,39.658l39.658,39.658l39.658-39.658L673.563,118.642z M650.901,158.299       l22.662-22.662l22.662,22.662l-22.662,22.662L650.901,158.299z"/>
				</g>
				<g>
					<path fill="#FFFFFF" d="M594.249,118.642l-39.658,39.658l39.658,39.658l39.656-39.658L594.249,118.642z M571.585,158.299       l22.664-22.662l22.66,22.662l-22.66,22.662L571.585,158.299z"/>
				</g>
				<g>
					<path fill="#FFFFFF" d="M633.905,65.884l-39.656,39.656l39.656,39.658l39.658-39.658L633.905,65.884z M611.243,105.54       l22.662-22.661l22.662,22.661l-22.662,22.662L611.243,105.54z"/>
					
						<rect x="625.893" y="97.53" transform="matrix(0.7071 0.7072 -0.7072 0.7071 260.3292 -417.3506)" fill="#FFFFFF" width="16.024" height="16.023"/>
				</g>
				
				<g>
					<path fill="#FFFFFF" d="M673.563,13.125l-39.658,39.658l39.658,39.657l39.658-39.657L673.563,13.125z M650.901,52.782       l22.662-22.661l22.662,22.661l-22.662,22.662L650.901,52.782z"/>
					
						<rect x="665.552" y="44.77" transform="matrix(0.7071 0.7071 -0.7071 0.7071 234.6045 -460.8218)" fill="#FFFFFF" width="16.023" height="16.024"/>
				</g>
				<g>
					<path fill="#FFFFFF" d="M594.249,13.125l-39.658,39.658l39.658,39.657l39.656-39.657L594.249,13.125z M571.585,52.782       l22.664-22.661l22.66,22.661l-22.66,22.662L571.585,52.782z"/>
					
						<rect x="586.237" y="44.769" transform="matrix(0.7072 0.707 -0.707 0.7072 211.3344 -404.7051)" fill="#FFFFFF" width="16.025" height="16.025"/>
				</g>
				
				
				
					<rect x="665.552" y="44.77" transform="matrix(0.7071 0.7071 -0.7071 0.7071 234.6045 -460.8218)" fill="#FFFFFF" width="16.023" height="16.024"/>
				
					<rect x="665.552" y="150.335" transform="matrix(0.7071 0.7071 -0.7071 0.7071 309.2632 -429.9103)" fill="#FFFFFF" width="16.023" height="16.023"/>
				
					<rect x="586.237" y="150.335" transform="matrix(0.7072 0.7071 -0.7071 0.7072 285.9855 -373.7988)" fill="#FFFFFF" width="16.025" height="16.025"/>
				
					
				<g>
					<path fill="#FFFFFF" d="M792.536,65.884L752.88,105.54l39.656,39.658l39.658-39.658L792.536,65.884z M769.876,105.54       l22.66-22.661l22.662,22.661l-22.662,22.662L769.876,105.54z"/>
					
						<rect x="784.524" y="97.53" transform="matrix(0.7071 0.7072 -0.7072 0.7071 306.7983 -529.5269)" fill="#FFFFFF" width="16.024" height="16.023"/>
				</g>
				<g>
					<path fill="#FFFFFF" d="M752.88,118.642l-39.658,39.658l39.658,39.658l39.656-39.658L752.88,118.642z M730.218,158.299       l22.662-22.662l22.66,22.662l-22.66,22.662L730.218,158.299z"/>
				</g>
				<g>
					<path fill="#FFFFFF" d="M713.222,65.884l-39.658,39.656l39.658,39.658l39.658-39.658L713.222,65.884z M690.56,105.54       l22.662-22.661l22.66,22.661l-22.66,22.662L690.56,105.54z"/>
					
						<rect x="705.209" y="97.529" transform="matrix(0.7071 0.7071 -0.7071 0.7071 283.5141 -473.4024)" fill="#FFFFFF" width="16.026" height="16.024"/>
				</g>
				<g>
					<path fill="#FFFFFF" d="M633.905,171.343l-39.656,39.658l39.656,39.657l39.658-39.657L633.905,171.343z M611.243,211.001       l22.662-22.661l22.662,22.661l-22.662,22.661L611.243,211.001z"/>
					
						<rect x="625.894" y="202.989" transform="matrix(0.7071 0.7071 -0.7071 0.7071 334.8665 -386.4381)" fill="#FFFFFF" width="16.023" height="16.024"/>
				</g>
				<g>
					<path fill="#FFFFFF" d="M554.591,171.343l-39.658,39.658l39.658,39.657l39.658-39.657L554.591,171.343z M531.929,211.001       l22.662-22.661l22.662,22.661l-22.662,22.661L531.929,211.001z"/>
					
						<rect x="546.579" y="202.989" transform="matrix(0.7071 0.7071 -0.7071 0.7071 311.6357 -330.3543)" fill="#FFFFFF" width="16.023" height="16.024"/>
				</g>
				<g>
					<path fill="#FFFFFF" d="M792.536,171.343l-39.656,39.658l39.656,39.657l39.658-39.657L792.536,171.343z M769.876,211.001       l22.66-22.661l22.662,22.661l-22.662,22.661L769.876,211.001z"/>
					
						<rect x="784.525" y="202.989" transform="matrix(0.7071 0.7071 -0.7071 0.7071 381.3284 -498.6071)" fill="#FFFFFF" width="16.023" height="16.024"/>
				</g>
				<g>
					<path fill="#FFFFFF" d="M713.222,171.343l-39.658,39.658l39.658,39.657l39.658-39.657L713.222,171.343z M690.56,211.001       l22.662-22.661l22.66,22.661l-22.66,22.661L690.56,211.001z"/>
					
						<rect x="705.209" y="202.988" transform="matrix(0.7072 0.707 -0.707 0.7072 358.0414 -442.4927)" fill="#FFFFFF" width="16.025" height="16.025"/>
				</g>
				<g>
					<path fill="#FFFFFF" d="M633.905-39.658L594.249,0l39.656,39.658L673.563,0L633.905-39.658z M611.243,0l22.662-22.662       L656.567,0l-22.662,22.662L611.243,0z"/>
					
						<rect x="625.893" y="-8.011" transform="matrix(0.7071 0.7071 -0.7071 0.7071 185.6864 -448.2578)" fill="#FFFFFF" width="16.024" height="16.023"/>
				</g>
				
				<g>
					<path fill="#FFFFFF" d="M792.536-39.658L752.88,0l39.656,39.658L832.194,0L792.536-39.658z M769.876,0l22.66-22.662L815.198,0       l-22.662,22.662L769.876,0z"/>
					
						<rect x="784.524" y="-8.011" transform="matrix(0.7071 0.7071 -0.7071 0.7071 232.1531 -560.4316)" fill="#FFFFFF" width="16.024" height="16.023"/>
				</g>
				<g>
					<path fill="#FFFFFF" d="M713.222-39.658L673.563,0l39.658,39.658L752.88,0L713.222-39.658z M690.56,0l22.662-22.662L735.882,0       l-22.66,22.662L690.56,0z"/>
					
						<rect x="705.209" y="-8.011" transform="matrix(0.7071 0.7071 -0.7071 0.7071 208.8766 -504.3019)" fill="#FFFFFF" width="16.025" height="16.024"/>
				</g>
				<g>
					<path fill="#FFFFFF" d="M752.88,13.125l-39.658,39.658l39.658,39.657l39.656-39.657L752.88,13.125z M730.218,52.782       l22.662-22.661l22.66,22.661l-22.66,22.662L730.218,52.782z"/>
					
						<rect x="744.868" y="44.769" transform="matrix(0.7072 0.707 -0.707 0.7072 257.7867 -516.8644)" fill="#FFFFFF" width="16.025" height="16.025"/>
				</g>
				
					<rect x="744.867" y="150.335" transform="matrix(0.7072 0.7071 -0.7071 0.7072 332.4401 -485.9604)" fill="#FFFFFF" width="16.025" height="16.025"/>
				<g>
					<path fill="#FFFFFF" d="M673.563,329.688l-39.658,39.657l39.658,39.658l39.658-39.658L673.563,329.688z M650.901,369.345       l22.662-22.661l22.662,22.661l-22.662,22.661L650.901,369.345z"/>
				</g>
				<g>
					<path fill="#FFFFFF" d="M594.249,329.688l-39.658,39.657l39.658,39.658l39.656-39.658L594.249,329.688z M571.585,369.345       l22.664-22.661l22.66,22.661l-22.66,22.661L571.585,369.345z"/>
				</g>
				<g>
					<path fill="#FFFFFF" d="M554.591,276.929l-39.658,39.657l39.658,39.658l39.658-39.658L554.591,276.929z M531.929,316.586       l22.662-22.662l22.662,22.662l-22.662,22.663L531.929,316.586z"/>
					
						<rect x="546.579" y="308.575" transform="matrix(0.7071 0.7071 -0.7071 0.7071 386.3096 -299.4326)" fill="#FFFFFF" width="16.023" height="16.023"/>
				</g>
				<g>
					<path fill="#FFFFFF" d="M673.563,224.17l-39.658,39.657l39.658,39.658l39.658-39.658L673.563,224.17z M650.901,263.828       l22.662-22.661l22.662,22.661l-22.662,22.661L650.901,263.828z"/>
					
						<rect x="665.552" y="255.816" transform="matrix(0.7071 0.7071 -0.7071 0.7071 383.8508 -399.0142)" fill="#FFFFFF" width="16.023" height="16.023"/>
				</g>
				<g>
					<path fill="#FFFFFF" d="M594.249,224.17l-39.658,39.657l39.658,39.658l39.656-39.658L594.249,224.17z M571.585,263.828       l22.664-22.661l22.66,22.661l-22.66,22.661L571.585,263.828z"/>
					
						<rect x="586.237" y="255.815" transform="matrix(0.7072 0.7071 -0.7071 0.7072 360.5666 -342.9091)" fill="#FFFFFF" width="16.025" height="16.025"/>
				</g>
				
				
				
					<rect x="665.552" y="255.816" transform="matrix(0.7071 0.7071 -0.7071 0.7071 383.8508 -399.0142)" fill="#FFFFFF" width="16.023" height="16.023"/>
				
					<rect x="665.552" y="361.382" transform="matrix(0.7071 0.7071 -0.7071 0.7071 458.5146 -368.0977)" fill="#FFFFFF" width="16.024" height="16.022"/>
				
					<rect x="586.236" y="361.382" transform="matrix(0.7071 0.7071 -0.7071 0.7071 435.2228 -311.9978)" fill="#FFFFFF" width="16.025" height="16.024"/>
				
					
				
				<g>
					<path fill="#FFFFFF" d="M911.513,118.642l-39.656,39.658l39.656,39.658l39.658-39.658L911.513,118.642z M888.851,158.299       l22.662-22.662l22.662,22.662l-22.662,22.662L888.851,158.299z"/>
				</g>
				
				<g>
					<path fill="#FFFFFF" d="M871.856,65.884l-39.658,39.656l39.658,39.658l39.658-39.658L871.856,65.884z M849.194,105.54       l22.662-22.661l22.662,22.661l-22.662,22.662L849.194,105.54z"/>
					
						<rect x="863.844" y="97.53" transform="matrix(0.7071 0.7072 -0.7072 0.7071 330.0343 -585.6184)" fill="#FFFFFF" width="16.024" height="16.023"/>
				</g>
				<g>
					<path fill="#FFFFFF" d="M911.513,13.125l-39.656,39.658l39.656,39.657l39.658-39.657L911.513,13.125z M888.851,52.782       l22.662-22.661l22.662,22.661l-22.662,22.662L888.851,52.782z"/>
					
						<rect x="903.501" y="44.77" transform="matrix(0.7071 0.7071 -0.7071 0.7071 304.2982 -629.0774)" fill="#FFFFFF" width="16.023" height="16.024"/>
				</g>
				<g>
					<path fill="#FFFFFF" d="M832.198,118.642l-39.658,39.658l39.658,39.658l39.658-39.658L832.198,118.642z M809.536,158.299       l22.662-22.662l22.662,22.662l-22.662,22.662L809.536,158.299z"/>
				</g>
				<g>
					<path fill="#FFFFFF" d="M832.198,13.125L792.54,52.782l39.658,39.657l39.658-39.657L832.198,13.125z M809.536,52.782       l22.662-22.661l22.662,22.661l-22.662,22.662L809.536,52.782z"/>
					
						<rect x="824.187" y="44.77" transform="matrix(0.7071 0.7071 -0.7071 0.7071 281.0676 -572.9936)" fill="#FFFFFF" width="16.023" height="16.024"/>
				</g>
				
					<rect x="903.502" y="150.335" transform="matrix(0.7072 0.7071 -0.7071 0.7072 378.8959 -598.1249)" fill="#FFFFFF" width="16.025" height="16.025"/>
				
					<rect x="824.187" y="150.335" transform="matrix(0.7071 0.7071 -0.7071 0.7071 355.7286 -542.0845)" fill="#FFFFFF" width="16.023" height="16.023"/>
				
				<g>
					<path fill="#FFFFFF" d="M871.856,171.343l-39.658,39.658l39.658,39.657l39.658-39.657L871.856,171.343z M849.194,211.001       l22.662-22.661l22.662,22.661l-22.662,22.661L849.194,211.001z"/>
					
						<rect x="863.845" y="202.989" transform="matrix(0.7071 0.7071 -0.7071 0.7071 404.5607 -554.695)" fill="#FFFFFF" width="16.023" height="16.024"/>
				</g>
				
				<g>
					<path fill="#FFFFFF" d="M871.856-39.658L832.198,0l39.658,39.658L911.515,0L871.856-39.658z M849.194,0l22.662-22.662       L894.519,0l-22.662,22.662L849.194,0z"/>
					
						<rect x="863.845" y="-8.011" transform="matrix(0.7071 0.7071 -0.7071 0.7071 255.3745 -616.5088)" fill="#FFFFFF" width="16.023" height="16.023"/>
				</g>
				<g>
					<path fill="#FFFFFF" d="M911.513,329.688l-39.656,39.657l39.656,39.658l39.658-39.658L911.513,329.688z M888.851,369.345       l22.662-22.661l22.662,22.661l-22.662,22.661L888.851,369.345z"/>
				</g>
				<g>
					<path fill="#FFFFFF" d="M871.856,276.929l-39.658,39.657l39.658,39.658l39.658-39.658L871.856,276.929z M849.194,316.586       l22.662-22.662l22.662,22.662l-22.662,22.663L849.194,316.586z"/>
					
						<rect x="863.845" y="308.575" transform="matrix(0.7071 0.7071 -0.7071 0.7071 479.2393 -523.7781)" fill="#FFFFFF" width="16.023" height="16.023"/>
				</g>
				<g>
					<path fill="#FFFFFF" d="M911.513,224.17l-39.656,39.657l39.656,39.658l39.658-39.658L911.513,224.17z M888.851,263.828       l22.662-22.661l22.662,22.661l-22.662,22.661L888.851,263.828z"/>
					
						<rect x="903.501" y="255.816" transform="matrix(0.7071 0.7071 -0.7071 0.7071 453.5481 -567.2734)" fill="#FFFFFF" width="16.023" height="16.023"/>
				</g>
				<g>
					<path fill="#FFFFFF" d="M832.198,329.688l-39.658,39.657l39.658,39.658l39.658-39.658L832.198,329.688z M809.536,369.345       l22.662-22.661l22.662,22.661l-22.662,22.661L809.536,369.345z"/>
				</g>
				<g>
					<path fill="#FFFFFF" d="M792.54,276.929l-39.656,39.657l39.656,39.658l39.658-39.658L792.54,276.929z M769.88,316.586       l22.66-22.662l22.662,22.662l-22.662,22.663L769.88,316.586z"/>
					
						<rect x="784.528" y="308.575" transform="matrix(0.7071 0.7071 -0.7071 0.7071 456.0069 -467.6917)" fill="#FFFFFF" width="16.023" height="16.023"/>
				</g>
				<g>
					<path fill="#FFFFFF" d="M832.198,224.17l-39.658,39.657l39.658,39.658l39.658-39.658L832.198,224.17z M809.536,263.828       l22.662-22.661l22.662,22.661l-22.662,22.661L809.536,263.828z"/>
					
						<rect x="824.187" y="255.816" transform="matrix(0.7071 0.7071 -0.7071 0.7071 430.3162 -511.1884)" fill="#FFFFFF" width="16.023" height="16.023"/>
				</g>
				
					<rect x="903.502" y="361.382" transform="matrix(0.7071 0.7071 -0.7071 0.7071 528.1382 -536.3289)" fill="#FFFFFF" width="16.025" height="16.024"/>
				
					<rect x="824.186" y="361.382" transform="matrix(0.7071 0.7071 -0.7071 0.7071 504.9825 -480.2743)" fill="#FFFFFF" width="16.024" height="16.022"/>
				<g>
					<path fill="#FFFFFF" d="M792.536,276.929l-39.656,39.657l39.656,39.658l39.658-39.657L792.536,276.929z M769.876,316.587       l22.66-22.663l22.662,22.663l-22.662,22.662L769.876,316.587z"/>
					
						<rect x="784.525" y="308.575" transform="matrix(0.7071 0.7071 -0.7071 0.7071 455.972 -467.6744)" fill="#FFFFFF" width="16.023" height="16.023"/>
				</g>
				<g>
					<path fill="#FFFFFF" d="M752.88,329.688l-39.658,39.657l39.658,39.658l39.656-39.658L752.88,329.688z M730.218,369.345       l22.662-22.661l22.66,22.661l-22.66,22.661L730.218,369.345z"/>
				</g>
				<g>
					<path fill="#FFFFFF" d="M713.222,276.929l-39.658,39.657l39.658,39.658l39.658-39.658L713.222,276.929z M690.56,316.586       l22.662-22.662l22.66,22.662l-22.66,22.663L690.56,316.586z"/>
					
						<rect x="705.209" y="308.574" transform="matrix(0.7072 0.7071 -0.7071 0.7072 432.7111 -411.5797)" fill="#FFFFFF" width="16.025" height="16.024"/>
				</g>
				<g>
					<path fill="#FFFFFF" d="M752.88,224.17l-39.658,39.657l39.658,39.658l39.656-39.658L752.88,224.17z M730.218,263.828       l22.662-22.661l22.66,22.661l-22.66,22.661L730.218,263.828z"/>
					
						<rect x="744.867" y="255.815" transform="matrix(0.7072 0.7071 -0.7071 0.7072 407.0212 -455.0708)" fill="#FFFFFF" width="16.025" height="16.025"/>
				</g>
				
					<rect x="744.867" y="361.382" transform="matrix(0.7071 0.7071 -0.7071 0.7071 481.6799 -424.1619)" fill="#FFFFFF" width="16.025" height="16.024"/>
				<g>
					<path fill="#FFFFFF" d="M633.905,382.475l-39.656,39.657l39.656,39.658l39.658-39.658L633.905,382.475z M611.243,422.132       l22.662-22.662l22.662,22.662l-22.662,22.663L611.243,422.132z"/>
					
						<rect x="625.894" y="414.121" transform="matrix(0.7071 0.7071 -0.7071 0.7071 484.1753 -324.6023)" fill="#FFFFFF" width="16.023" height="16.023"/>
				</g>
				<g>
					<path fill="#FFFFFF" d="M554.591,382.475l-39.658,39.657l39.658,39.658l39.658-39.658L554.591,382.475z M531.929,422.132       l22.662-22.662l22.662,22.662l-22.662,22.663L531.929,422.132z"/>
					
						<rect x="546.579" y="414.121" transform="matrix(0.7071 0.7071 -0.7071 0.7071 460.9434 -268.5173)" fill="#FFFFFF" width="16.023" height="16.023"/>
				</g>
				
				<g>
					<path fill="#FFFFFF" d="M871.856,382.475l-39.658,39.657l39.658,39.658l39.658-39.658L871.856,382.475z M849.194,422.132       l22.662-22.662l22.662,22.662l-22.662,22.663L849.194,422.132z"/>
					
						<rect x="863.845" y="414.121" transform="matrix(0.7071 0.7071 -0.7071 0.7071 553.8732 -492.8628)" fill="#FFFFFF" width="16.023" height="16.023"/>
				</g>
				<g>
					<path fill="#FFFFFF" d="M792.54,382.475l-39.656,39.657l39.656,39.658l39.658-39.658L792.54,382.475z M769.88,422.132       l22.66-22.662l22.662,22.662l-22.662,22.663L769.88,422.132z"/>
					
						<rect x="784.528" y="414.121" transform="matrix(0.7071 0.7071 -0.7071 0.7071 530.6407 -436.7764)" fill="#FFFFFF" width="16.023" height="16.023"/>
				</g>
				<g>
					<path fill="#FFFFFF" d="M792.536,382.475l-39.656,39.657l39.656,39.658l39.658-39.657L792.536,382.475z M769.876,422.133       l22.66-22.663l22.662,22.663l-22.662,22.662L769.876,422.133z"/>
					
						<rect x="784.525" y="414.121" transform="matrix(0.7071 0.7071 -0.7071 0.7071 530.6026 -436.7623)" fill="#FFFFFF" width="16.023" height="16.023"/>
				</g>
				<g>
					<path fill="#FFFFFF" d="M713.222,382.475l-39.658,39.657l39.658,39.658l39.658-39.658L713.222,382.475z M690.56,422.132       l22.662-22.662l22.66,22.662l-22.66,22.663L690.56,422.132z"/>
					
						<rect x="705.209" y="414.12" transform="matrix(0.7072 0.7071 -0.7071 0.7072 507.3385 -380.6709)" fill="#FFFFFF" width="16.025" height="16.024"/>
				</g>
			</g>
		</g>
	</g>
</g>
</svg>
